<svg xmlns="http://www.w3.org/2000/svg" viewBox="0 -0.5 500 69" shape-rendering="crispEdges">
<metadata>Made with Pixels to Svg https://codepen.io/shshaw/pen/XbxvNj</metadata>
<path stroke="#f2f2f2" d="M216 1h10M212 2h18M209 3h24M135 4h10M196 4h6M207 4h28M297 4h11M131 5h18M194 5h10M206 5h30M293 5h19M129 6h22M193 6h45M290 6h25M62 7h10M127 7h26M192 7h47M287 7h31M58 8h18M125 8h30M191 8h49M286 8h33M55 9h24M124 9h32M190 9h51M284 9h37M53 10h28M123 10h34M190 10h52M283 10h39M51 11h32M122 11h36M189 11h54M281 11h43M50 12h34M121 12h38M189 12h55M280 12h45M48 13h38M120 13h40M189 13h56M279 13h47M47 14h40M119 14h42M189 14h56M278 14h49M46 15h42M118 15h44M189 15h57M277 15h51M45 16h44M117 16h46M189 16h58M276 16h53M44 17h46M117 17h46M190 17h57M275 17h55M460 17h8M43 18h48M116 18h48M191 18h57M275 18h55M461 18h10M42 19h50M116 19h48M193 19h55M274 19h57M461 19h9M42 20h50M119 20h46M195 20h53M273 20h59M462 20h7M41 21h52M123 21h42M196 21h53M273 21h59M462 21h7M40 22h54M126 22h40M197 22h52M274 22h59M385 22h8M463 22h5M40 23h54M128 23h38M199 23h48M276 23h56M382 23h14M463 23h5M39 24h56M130 24h35M200 24h46M277 24h53M379 24h20M464 24h3M39 25h56M132 25h33M200 25h45M278 25h51M378 25h22M464 25h3M38 26h56M133 26h31M201 26h43M279 26h48M377 26h24M465 26h2M38 27h55M134 27h29M214 27h29M280 27h46M375 27h28M465 27h1M38 28h53M136 28h26M218 28h24M281 28h44M374 28h29M465 28h1M37 29h12M60 29h30M137 29h25M221 29h20M282 29h42M374 29h29M465 29h1M39 30h6M64 30h25M138 30h23M224 30h16M283 30h40M374 30h28M40 31h3M66 31h17M139 31h22M226 31h14M283 31h39M375 31h27M68 32h13M139 32h21M227 32h12M284 32h37M376 32h26M70 33h10M140 33h20M229 33h10M284 33h37M376 33h26M71 34h8M141 34h19M230 34h8M285 34h35M377 34h25M73 35h5M142 35h18M232 35h6M285 35h34M378 35h21M74 36h3M142 36h17M233 36h4M286 36h33M378 36h19M75 37h1M143 37h16M234 37h3M286 37h15M312 37h6M379 37h4M390 37h6M143 38h16M235 38h2M286 38h11M316 38h1M393 38h2M144 39h15M236 39h1M286 39h8M144 40h6M287 40h5M145 41h1M287 41h3M287 42h1" />
<path stroke="#ffffff" d="M428 4h12M424 5h20M422 6h24M420 7h28M418 8h32M416 9h36M415 10h38M414 11h40M482 11h9M412 12h44M479 12h15M411 13h46M477 13h19M410 14h48M475 14h23M410 15h48M474 15h25M409 16h50M473 16h27M178 17h9M408 17h52M472 17h28M174 18h17M407 18h54M471 18h29M172 19h21M257 19h9M343 19h11M407 19h54M470 19h30M108 20h11M170 20h25M253 20h17M339 20h19M406 20h56M469 20h31M104 21h19M169 21h27M251 21h21M336 21h25M406 21h56M469 21h31M101 22h25M168 22h29M249 22h25M333 22h31M405 22h58M468 22h32M99 23h29M166 23h33M247 23h29M332 23h33M405 23h58M468 23h32M97 24h33M165 24h35M246 24h31M330 24h37M404 24h60M467 24h33M18 25h10M95 25h37M165 25h35M245 25h33M329 25h39M404 25h60M467 25h33M14 26h18M94 26h39M164 26h37M244 26h35M327 26h43M403 26h62M467 26h33M12 27h22M93 27h41M163 27h51M243 27h37M326 27h45M403 27h62M466 27h34M10 28h26M91 28h45M162 28h56M242 28h39M325 28h47M403 28h62M466 28h34M9 29h28M49 29h11M90 29h47M162 29h59M241 29h41M324 29h49M403 29h62M466 29h34M7 30h32M45 30h19M89 30h49M161 30h63M240 30h43M323 30h51M402 30h98M6 31h34M43 31h23M83 31h56M161 31h65M240 31h43M322 31h53M402 31h98M5 32h63M81 32h58M160 32h67M239 32h45M321 32h55M402 32h98M4 33h66M80 33h60M160 33h69M239 33h45M321 33h55M402 33h98M3 34h68M79 34h62M160 34h70M238 34h47M320 34h57M402 34h98M2 35h71M78 35h64M160 35h72M238 35h47M319 35h59M399 35h101M2 36h72M77 36h65M159 36h74M237 36h49M319 36h59M397 36h103M1 37h74M76 37h67M159 37h75M237 37h49M301 37h11M318 37h61M383 37h7M396 37h104M0 38h143M159 38h76M237 38h49M297 38h19M317 38h76M395 38h105M0 39h144M159 39h77M237 39h49M294 39h206M0 40h144M150 40h137M292 40h208M0 41h145M146 41h141M290 41h210M0 42h287M288 42h212M0 43h500M0 44h500M0 45h500M0 46h500M0 47h500M0 48h500M0 49h500M0 50h500M0 51h500M0 52h500M0 53h500M0 54h500M0 55h500M0 56h500M0 57h500M0 58h500M0 59h500M0 60h500M0 61h500M0 62h500M0 63h500M0 64h500M0 65h500M0 66h500M0 67h500" />
</svg>