<?xml version="1.0" encoding="UTF-8"?> <svg xmlns="http://www.w3.org/2000/svg" height="22" viewBox="0 0 150 22" width="150"> <g fill="none" transform="translate(0 .75)"> <path d="m146.915888 0h3.084112v20.747664h-3.084112z" fill="#026fde"></path> <path d="m0 3.80182691v-3.80182691l13.7383178 8.66491553v3.39115927z" fill="#84b7ff"></path> <path d="m0 17.0248653v3.7227983l13.7383178-8.4334674v-3.34223358z" fill="#016fde"></path> <path d="m20.2462147 9.82443667c.7096698-1.1559028 1.5554845-2.02694506 2.5374695-2.61315291s1.8855627-.87930738 2.7107601-.87930738c1.1552765 0 2.1950097.49950766 3.1192307 1.49853794.9242213.99903028 1.386325 2.51406588 1.386325 4.54515218 0 1.6017511-.3073814 3.0321593-.9221535 4.2912677-.6147723 1.2591085-1.4337684 2.2539956-2.4570132 2.9846913-1.0232449.7306957-2.289904 1.0960381-3.8000154 1.0960381-.4291027 0-1.0892508-.0454098-1.980464-.1362308-.1320316-.0165129-.330076-.0371537-.5941392-.061923h-2.3022895v-19.98876214h2.3022895zm.221075 2.64882083v5.9868258c.837617.2166434 1.6088766.3249634 2.3138018.3249634 1.4015572 0 2.5812526-.5520156 3.5391216-1.6560635.957869-1.1040478 1.4367962-2.6142793 1.4367962-4.5307398 0-1.3915169-.261233-2.437222-.783707-3.13714668-.522474-.69992467-1.1154316-1.04988177-1.7788906-1.04988177-.7215117 0-1.5155773.3666217-2.3822207 1.09987615-.8666433.7332544-1.6482693 1.7206333-2.3449013 2.9621664zm18.2304115 8.2744061c-1.9559826 0-3.5207453-.6904246-4.6943349-2.0712944-1.1735897-1.3808699-1.7603756-3.1223885-1.7603756-5.2246082 0-2.1022198.5867859-3.84167747 1.7603756-5.2184253 1.1735896-1.3767478 2.7383523-2.0651114 4.6943349-2.0651114 1.9478327 0 3.5085205.6883636 4.6821101 2.0651114 1.1735896 1.37674783 1.7603756 3.1162055 1.7603756 5.2184253 0 2.1022197-.586786 3.8437383-1.7603756 5.2246082-1.1735896 1.3808698-2.7342774 2.0712944-4.6821101 2.0712944zm.1403193-1.9626169c1.240657 0 2.227339-.4740604 2.9600759-1.4221954.7327368-.9481351 1.0990999-2.2518012 1.0990999-3.9110375 0-1.6510628-.3663631-2.9506422-1.0990999-3.89877723-.7327369-.94813503-1.7194189-1.42219545-2.9600759-1.42219545-1.2489833 0-2.2398286.47406042-2.9725655 1.42219545-.7327368.94813503-1.0990999 2.24771443-1.0990999 3.89877723 0 1.6592363.3663631 2.9629024 1.0990999 3.9110375.7327369.948135 1.7235822 1.4221954 2.9725655 1.4221954zm19.4797365 1.0281616c-1.0849834.4508359-1.8717917.7192842-2.3604485.8053529-.4886565.0860687-.9607416.1291024-1.4162689.1291024-.9690311 0-1.8552255-.1844302-2.6586103-.5532959-.8033846-.3688658-1.4100553-.9139592-1.82003-1.6352967-.4099746-.7213375-.6149587-1.836115-.6149587-3.3443661v-5.53295869h-3.4661322v-1.90579687h3.4661322v-5.53295869h2.3107547v5.53295869h6.174436v1.90579687h-6.174436v5.49607229c0 1.1065973.1325151 1.8873514.3975491 2.3422858.265034.4549345.6190979.7889579 1.0622019 1.0020803.4431039.2131225.9669524.3196821 1.5715615.3196821 1.1181129 0 2.2941841-.348368 3.5282492-1.0451144zm2.2429907.6540814v-13.91294081h1.9778489v3.18864176c.6228839-1.35351877 1.2032899-2.28768182 1.7412351-2.80251717.5379451-.51483536 1.0819494-.77224918 1.6320286-.77224918.6552418 0 1.1830671.26364157 1.5834925.79093262.4004254.52729107.6006353 1.27669741.6006353 2.24824158v.7473379c.2669501-.84698719.5884991-1.53411603.9646562-2.06140707.3761574-.52729108.766465-.94662648 1.1709353-1.25801883.4044701-.31139237.8696036-.4670862 1.3954147-.4670862.5824371 0 1.0799277.25326199 1.4924874.75979354.4125594.50653158.6188361 1.51542766.6188361 3.02671856v10.5125533h-1.977849v-9.5036471c0-.7805569-.0242678-1.31406774-.0728041-1.60054873-.0485367-.28648096-.145608-.50445233-.291217-.65392066-.1456094-.14946832-.3033502-.22420138-.4732279-.22420138-.4206488 0-.8716262.33007094-1.3529456.99022273-.4813194.66015184-.9727433 1.75416054-1.4742861 3.28205904v7.7100361h-1.8929108v-9.4911915c0-1.22896183-.1172944-1.95138123-.3518871-2.16727993s-.444914-.32384644-.6309701-.32384644c-.4125597 0-.8554478.36951339-1.3286779 1.10855125-.4732298.73903782-.9242074 1.68565642-1.3529456 2.83988402v8.0338826zm22.1556451.2803739c-1.9559826 0-3.5207453-.6904246-4.6943349-2.0712944-1.1735897-1.3808699-1.7603757-3.1223885-1.7603757-5.2246082 0-2.1022198.586786-3.84167747 1.7603757-5.2184253 1.1735896-1.3767478 2.7383523-2.0651114 4.6943349-2.0651114 1.9478327 0 3.5085205.6883636 4.6821101 2.0651114 1.1735896 1.37674783 1.7603756 3.1162055 1.7603756 5.2184253 0 2.1022197-.586786 3.8437383-1.7603756 5.2246082-1.1735896 1.3808698-2.7342774 2.0712944-4.6821101 2.0712944zm-.1400546-1.9626169c1.240657 0 2.2273391-.4740604 2.9600759-1.4221954.7327368-.9481351 1.0990999-2.2518012 1.0990999-3.9110375 0-1.6510628-.3663631-2.9506422-1.0990999-3.89877723s-1.7194189-1.42219545-2.9600759-1.42219545c-1.2489832 0-2.2398286.47406042-2.9725654 1.42219545s-1.0990999 2.24771443-1.0990999 3.89877723c0 1.6592363.3663631 2.9629024 1.0990999 3.9110375.7327368.948135 1.7235822 1.4221954 2.9725654 1.4221954zm19.4797368 1.0281616c-1.084984.4508359-1.871792.7192842-2.3604487.8053529-.4886566.0860687-.9607416.1291024-1.4162689.1291024-.9690311 0-1.8552255-.1844302-2.6586104-.5532959-.8033846-.3688658-1.4100552-.9139592-1.8200299-1.6352967s-.6149588-1.836115-.6149588-3.3443661v-5.53295869h-3.4661321v-1.90579687h3.4661321v-5.53295869h2.3107548v5.53295869h6.1744359v1.90579687h-6.1744359v5.49607229c0 1.1065973.132515 1.8873514.397549 2.3422858.2650341.4549345.619098.7889579 1.0622019 1.0020803.4431039.2131225.9669524.3196821 1.5715615.3196821 1.1181129 0 2.2941845-.348368 3.5282495-1.0451144zm1.962617.6540814v-20.18691587h2.296595v9.26797068c.658526-1.0756403 1.45286-1.91779567 2.383027-2.52649132.930168-.60869569 1.860321-.91303896 2.790488-.91303896.781999 0 1.496077.20220068 2.142255.60660808s1.09685.89427499 1.352028 1.46961748c.205789.44192972.345724.91095188.419808 1.40708056.074084.49612865.111126 1.51963925.111126 3.07056245v7.8046069h-2.296596v-8.0922767c0-1.3424658-.063794-2.2283965-.191383-2.65781881-.12759-.4294223-.362186-.78171006-.703796-1.05687387-.34161-.27516379-.714083-.41274362-1.11743-.41274362-.806693 0-1.673053.38772499-2.599104 1.16318661-.926051.77546159-1.689518 1.74685859-2.290423 2.91422019v8.1423062zm25.875903-1.0293046c-1.847779.8731233-3.596099 1.3096785-5.245014 1.3096785-1.251187 0-2.36978-.3088834-3.355815-.9266593-.986034-.617776-1.775264-1.5011823-2.367713-2.6502455-.59245-1.1490633-.88867-2.378419-.88867-3.688104 0-1.2602629.28172-2.4710855.845168-3.63250431.563449-1.16141877 1.350607-2.06541732 2.361499-2.71202283 1.010893-.64660547 2.137773-.96990336 3.380673-.96990336 1.648915 0 2.972584.5848191 3.971047 1.75447489.998464 1.16965578 1.497688 2.97353451 1.497688 5.41169011v.4942183h-9.570286c0 .9554935.200932 1.8286037.602803 2.6193569.401872.7907532.930097 1.3838092 1.584691 1.7791858s1.400323.593062 2.23721.593062c1.49148 0 3.14037-.4942134 4.946719-1.4826549zm-9.333847-7.3819103h7.009345v-.3250961c0-1.0997131-.281042-1.97465414-.843134-2.62484947-.562093-.65019532-1.312937-.97528811-2.252555-.97528811-.948007 0-1.768063.33111303-2.460192.99334901s-1.176613 1.63952107-1.453464 2.93188467zm11.775701 8.4112149v-13.91294081h2.302545v3.03917419c.718001-1.14592387 1.541215-2.00327795 2.469665-2.57208799.92845-.56881003 1.962109-.85321079 3.101008-.85321079.833542 0 1.667072.1287069 2.500613.38612459v5.01961961h-2.21589v-3.17618609c-.387886-.06643037-.693238-.09964505-.916066-.09964505-.858301 0-1.700083.34045054-2.525372 1.0213618-.825289.68091124-1.629934 1.70226284-2.413958 3.06408544v8.0837051z" fill="#fff"></path> </g> </svg> 