<svg xmlns="http://www.w3.org/2000/svg" viewBox="0 -0.5 37 37" shape-rendering="crispEdges">
<metadata>Made with Pixels to Svg https://codepen.io/shshaw/pen/XbxvNj</metadata>
<path stroke="#ffffff" d="M28 1h3M28 2h4M28 3h4M13 4h8M29 4h3M10 5h14M9 6h16M8 7h19M8 8h20M8 9h21M7 10h23M7 11h23M7 12h12M21 12h4M27 12h4M7 13h11M19 13h2M22 13h2M25 13h2M28 13h4M7 14h11M19 14h2M22 14h2M25 14h2M28 14h4M7 15h11M19 15h1M22 15h2M25 15h1M28 15h4M7 16h11M19 16h1M22 16h2M25 16h1M28 16h5M7 17h11M19 17h1M22 17h2M25 17h1M28 17h5M8 18h10M19 18h2M22 18h2M25 18h2M28 18h5M8 19h11M21 19h4M27 19h6M8 20h25M8 21h25M8 22h25M8 23h25M8 24h24M9 25h23M9 26h23M11 27h20M14 28h16M15 29h15M17 30h12M21 31h7" />
<path stroke="#e5e5e5" d="M27 2h1M27 3h1M27 4h2M28 5h3M7 7h1M30 7h1M6 8h2M5 9h3M4 10h3M4 11h3M3 12h4M2 13h5M2 14h5M2 15h5M1 16h6M1 17h6M1 18h7M1 19h7M1 20h7M1 21h7M1 22h7M1 23h7M2 24h6M2 25h7M2 26h7M3 27h8M4 28h10M4 29h11M5 30h12M6 31h15M7 32h20M9 33h16M10 34h14M13 35h8" />
<path stroke="#c2c2c2" d="M19 12h2M25 12h2M18 13h1M21 13h1M24 13h1M27 13h1M18 14h1M21 14h1M24 14h1M27 14h1M18 15h1M21 15h1M24 15h1M27 15h1M18 16h1M21 16h1M24 16h1M27 16h1M18 17h1M21 17h1M24 17h1M27 17h1M18 18h1M21 18h1M24 18h1M27 18h1M19 19h2M25 19h2" />
<path stroke="#837d86" d="M20 15h1M26 15h1M20 16h1M26 16h1M20 17h1M26 17h1" />
</svg>